<svg xmlns="http://www.w3.org/2000/svg" viewBox="0 0 24 24" fill="currentColor">
  <path d="M12 0A12 12 0 0 0 0 12a12 12 0 0 0 12 12 12 12 0 0 0 12-12A12 12 0 0 0 12 0zm5.01 4.744c.688 0 1.25.561 1.25 1.249a1.25 1.25 0 0 1-2.498.056l-2.597-.547-.8 3.747c1.824.07 3.48.632 4.674 1.488.308-.309.73-.491 1.192-.491.954 0 1.727.772 1.727 1.728 0 .685-.4 1.272-.977 1.542.015.176.024.354.024.533 0 2.707-3.217 4.901-7.184 4.901-3.967 0-7.184-2.194-7.184-4.901 0-.174.008-.349.023-.523-.585-.268-.992-.861-.992-1.548 0-.956.772-1.728 1.727-1.728.455 0 .872.179 1.178.485 1.196-.856 2.854-1.417 4.68-1.487l.951-4.463 3.256.686c.078-.592.585-1.054 1.205-1.054zm-6.284 8.784c-.69 0-1.25.56-1.25 1.25s.56 1.25 1.25 1.25 1.25-.56 1.25-1.25-.56-1.25-1.25-1.25zm6.548 0c-.69 0-1.25.56-1.25 1.25s.56 1.25 1.25 1.25 1.25-.56 1.25-1.25-.56-1.25-1.25-1.25zm-6.542 3.864c-.215 0-.376.16-.367.375.12 2.658 5.753 2.671 5.864 0 .009-.214-.152-.375-.367-.375-.688.026-4.444.02-5.13 0z"/>
</svg>