<svg xmlns="http://www.w3.org/2000/svg" viewBox="0 0 24 24" fill="currentColor">
  <path d="M11.979 0C5.678 0 .511 4.86.022 11.037l6.432 2.658c.545-.371 1.203-.59 1.912-.59.063 0 .125.004.188.006l2.861-4.142V8.91c0-2.495 2.028-4.524 4.524-4.524 2.494 0 4.524 2.029 4.524 4.524s-2.03 4.524-4.524 4.524h-.105l-4.076 2.911c.002.052.005.105.005.159 0 1.875-1.515 3.396-3.39 3.396-1.635 0-3.007-1.155-3.326-2.695L.269 15.044C1.597 20.247 6.34 24 11.979 24c6.627 0 12-5.373 12-12s-5.373-12-12-12zm-3.61 14.887l-2.093-.864c.264.63.784 1.134 1.444 1.348 1.111.36 2.308-.242 2.668-1.353.186-.572.124-1.171-.124-1.674-.325.29-.757.48-1.238.48-.225 0-.44-.044-.637-.123-.007.728-.014 1.457-.02 2.186zm9.569-5.977c0-1.425-1.158-2.583-2.583-2.583-1.425 0-2.583 1.158-2.583 2.583s1.158 2.583 2.583 2.583c1.425 0 2.583-1.158 2.583-2.583z"/>
</svg>